<?xml version="1.0" standalone="no"?>
<!DOCTYPE svg PUBLIC "-//W3C//DTD SVG 20010904//EN"
 "http://www.w3.org/TR/2001/REC-SVG-20010904/DTD/svg10.dtd">
<svg version="1.0" xmlns="http://www.w3.org/2000/svg"
 width="260.000000pt" height="260.000000pt" viewBox="0 0 260.000000 260.000000"
 preserveAspectRatio="xMidYMid meet">
<metadata>
Created by potrace 1.11, written by Peter Selinger 2001-2013
</metadata>
<g transform="translate(0.000000,260.000000) scale(0.100000,-0.100000)"
fill="#000000" stroke="none">
<path d="M0 1300 l0 -1300 1300 0 1300 0 0 1300 0 1300 -1300 0 -1300 0 0
-1300z m1903 605 c169 -36 247 -124 247 -282 0 -130 -60 -213 -181 -249 l-59
-18 50 -13 c155 -40 219 -118 220 -270 0 -111 -24 -176 -90 -237 -96 -90 -166
-106 -465 -106 l-225 0 0 595 0 595 218 0 c150 0 238 -5 285 -15z"/>
<path d="M1480 1615 l0 -227 198 4 c173 4 204 8 254 27 96 37 133 102 126 221
-5 86 -36 131 -117 169 -54 25 -64 26 -258 29 l-203 3 0 -226z"/>
<path d="M1480 1060 l0 -250 193 0 c211 0 259 8 326 54 58 41 84 96 89 191 4
101 -19 154 -90 202 -67 44 -123 53 -333 53 l-185 0 0 -250z"/>
</g>
</svg>
